<svg width="75" height="16" viewBox="0 0 75 16" fill="none" xmlns="http://www.w3.org/2000/svg">
<path d="M3.77389 15.0126V8.7142C3.77389 7.16118 4.52883 6.51408 5.4779 6.51408C6.53482 6.51408 7.07407 7.35531 7.07407 8.69263V15.0126H10.7625V8.7142C10.7625 7.16118 11.539 6.51408 12.4665 6.51408C13.5234 6.51408 14.0627 7.35531 14.0627 8.69263V15.0126H17.7511V7.54943C17.7511 4.72379 16.1334 3.19233 13.8254 3.19233C12.1214 3.19233 11.0861 3.861 10.0938 4.98263C9.44675 3.81786 8.28198 3.19233 6.81523 3.19233C5.30534 3.19233 4.35627 3.79629 3.47191 4.83164V3.40803H0.0854492V15.0126H3.77389Z" fill="white"/>
<path d="M25.3821 15.2283C28.8117 15.2283 31.4432 12.5321 31.4432 9.21031C31.4432 5.88856 28.8117 3.19233 25.3821 3.19233C21.9525 3.19233 19.321 5.88856 19.321 9.21031C19.321 12.5321 21.9525 15.2283 25.3821 15.2283ZM25.3821 11.9281C24.2389 11.9281 23.1604 11.0222 23.1604 9.21031C23.1604 7.39845 24.2389 6.51408 25.3821 6.51408C26.5253 6.51408 27.6038 7.39845 27.6038 9.21031C27.6038 11.0222 26.5253 11.9281 25.3821 11.9281Z" fill="white"/>
<path d="M42.8252 15.0126V11.7771H37.217L42.6958 6.51408V3.40803H32.5364V6.6435H38.0798L32.6658 11.9712V15.0126H42.8252Z" fill="white"/>
<path d="M51.6415 15.0126H54.6181V7.85141C54.6181 4.91792 52.7416 3.19233 49.5492 3.19233C46.6805 3.19233 44.6745 4.96106 44.4588 7.65728H47.7805C47.9099 6.6435 48.5139 6.08269 49.5277 6.08269C50.563 6.08269 51.1454 6.6435 51.1454 7.65728V8.2181C50.6493 8.13182 50.0669 8.08868 49.4414 8.08868C46.1196 8.08868 44.2862 9.31816 44.2862 11.583C44.2862 13.7831 45.9039 15.2283 48.3198 15.2283C49.8081 15.2283 50.8219 14.8185 51.6415 13.891V15.0126ZM47.7589 11.4751C47.7589 10.6771 48.4276 10.2672 49.6787 10.2672C50.1532 10.2672 50.5846 10.3104 51.1454 10.4182V11.1516C51.1454 12.1007 50.412 12.683 49.1825 12.683C48.2766 12.683 47.7589 12.2301 47.7589 11.4751Z" fill="white"/>
<path d="M60.6053 9.66328C60.6053 7.09647 62.2662 6.90234 64.8761 7.16118V3.32175C63.0211 3.32175 61.1877 4.09826 60.3033 5.45716V3.40803H56.9168V15.0126H60.6053V9.66328Z" fill="white"/>
<path d="M74.8355 11.3889C74.4256 11.6477 73.8432 11.7987 73.2393 11.7987C72.2255 11.7987 71.751 11.281 71.751 10.1594V6.62193H74.9217V3.40803H71.751V0H68.0625V3.40803H65.9056V6.62193H68.0625V11.0222C68.0625 13.6753 69.594 15.2283 72.2039 15.2283C73.2393 15.2283 74.0158 15.0557 74.8355 14.6028V11.3889Z" fill="white"/>
</svg>
