<svg width="59" height="59" viewBox="0 0 59 59" fill="none" xmlns="http://www.w3.org/2000/svg">
<path fill-rule="evenodd" clip-rule="evenodd" d="M29.5 0C13.208 0 0 13.208 0 29.5C0 45.792 13.208 59 29.5 59C45.792 59 59 45.792 59 29.5C59 13.208 45.792 0 29.5 0ZM42.2869 24.5118C42.5224 24.2427 42.7016 23.9292 42.8141 23.5897C42.9266 23.2503 42.9701 22.8918 42.942 22.5353C42.9139 22.1788 42.8148 21.8315 42.6505 21.5139C42.4862 21.1963 42.2601 20.9147 41.9853 20.6858C41.7106 20.4569 41.3929 20.2852 41.0509 20.1809C40.7088 20.0765 40.3494 20.0417 39.9936 20.0783C39.6379 20.115 39.2931 20.2224 38.9795 20.3942C38.666 20.5661 38.3899 20.799 38.1676 21.0791L26.6358 34.9146L20.6688 28.9449C20.163 28.4564 19.4855 28.186 18.7824 28.1921C18.0792 28.1983 17.4066 28.4803 16.9094 28.9775C16.4121 29.4748 16.1301 30.1474 16.124 30.8506C16.1179 31.5537 16.3882 32.2312 16.8767 32.737L24.9221 40.7824C25.1856 41.0458 25.5011 41.2513 25.8485 41.386C26.1958 41.5206 26.5674 41.5815 26.9396 41.5646C27.3117 41.5477 27.6763 41.4534 28.01 41.2878C28.3437 41.1222 28.6393 40.8889 28.8778 40.6027L42.2869 24.5118Z" fill="url(#paint0_linear_705_8065)"/>
<defs>
<linearGradient id="paint0_linear_705_8065" x1="-1.5" y1="30" x2="67.5" y2="30" gradientUnits="userSpaceOnUse">
<stop stop-color="#5773D7"/>
<stop offset="0.494792" stop-color="#9757D7"/>
<stop offset="1" stop-color="#D75775"/>
</linearGradient>
</defs>
</svg>
