<svg width="42" height="42" viewBox="0 0 42 42" fill="none" xmlns="http://www.w3.org/2000/svg">
<path fill-rule="evenodd" clip-rule="evenodd" d="M33.8625 15.82C32.6725 9.7825 27.37 5.25 21 5.25C15.9425 5.25 11.55 8.12 9.3625 12.32C4.095 12.88 0 17.3425 0 22.75C0 28.5425 4.7075 33.25 10.5 33.25H33.25C38.08 33.25 42 29.33 42 24.5C42 19.88 38.4125 16.135 33.8625 15.82ZM33.25 29.75H10.5C6.6325 29.75 3.5 26.6175 3.5 22.75C3.5 19.1625 6.1775 16.17 9.73 15.8025L11.6025 15.61L12.4775 13.9475C14.14 10.745 17.395 8.75 21 8.75C25.585 8.75 29.54 12.005 30.4325 16.5025L30.9575 19.1275L33.635 19.32C36.365 19.495 38.5 21.7875 38.5 24.5C38.5 27.3875 36.1375 29.75 33.25 29.75ZM18.4625 21H14L21 14L28 21H23.5375V26.25H18.4625V21Z" fill="white" fill-opacity="0.31"/>
</svg>
