<svg width="12" height="18" viewBox="0 0 12 18" fill="none" xmlns="http://www.w3.org/2000/svg">
<path fill-rule="evenodd" clip-rule="evenodd" d="M2.86089 4.58709C1.2874 7.10999 0 9.17771 0 9.18202C0 9.18632 0.784456 9.65129 1.74324 10.2153C2.70201 10.7793 3.98846 11.536 4.602 11.8969C5.21555 12.2578 5.72248 12.5531 5.7285 12.5531C5.73797 12.5531 11.4308 9.21029 11.4545 9.19083C11.4593 9.18686 11.0643 8.54411 10.5768 7.76251C10.0892 6.9809 8.80038 4.91459 7.71279 3.1707C6.6252 1.42681 5.7323 0 5.72857 0C5.72483 0 4.43438 2.06419 2.86089 4.58709ZM0.00573433 10.2862C0.00573433 10.2896 0.731712 11.2717 1.61902 12.4688C2.50633 13.6658 3.56773 15.0977 3.97768 15.6508C4.38764 16.2038 4.94755 16.9593 5.22193 17.3297C5.49631 17.7001 5.72523 18.0017 5.73066 18C5.74214 17.9964 11.4542 10.2923 11.4491 10.2874C11.4471 10.2856 10.1593 11.0409 8.58708 11.9657L5.72859 13.6473L2.89297 11.9794C1.33338 11.062 0.045737 10.3044 0.0315388 10.2957C0.0173406 10.2871 0.00573433 10.2828 0.00573433 10.2862Z" fill="white"/>
</svg>
